<?xml version="1.0" encoding="UTF-8"?>
<svg version="1.1" xmlns="http://www.w3.org/2000/svg" width="321" height="223">
<path d="M0 0 C105.93 0 211.86 0 321 0 C321 73.59 321 147.18 321 223 C215.07 223 109.14 223 0 223 C0 149.41 0 75.82 0 0 Z " fill="#FEFEFE" transform="translate(0,0)"/>
<path d="M0 0 C-0.33 0.99 -0.66 1.98 -1 3 C4.79369211 13.48524227 13.33726831 24.20126239 23.41015625 30.6953125 C26.13555698 32.93188214 27.79643947 35.87199663 29.64453125 38.83984375 C31.2443371 41.38939024 33.06722302 43.69553514 35 46 C34.34 47.32 33.68 48.64 33 50 C31.68 50 30.36 50 29 50 C29.22844404 52.7533518 29.48175448 55.50048338 29.75 58.25 C29.811875 59.02730469 29.87375 59.80460937 29.9375 60.60546875 C30.30061593 64.14584904 30.66261791 66.48095063 32.625 69.5 C35.87052715 71.54980662 38.43641094 71.60875596 42.25 71.75 C43.51328125 71.80671875 44.7765625 71.8634375 46.078125 71.921875 C47.04234375 71.94765625 48.0065625 71.9734375 49 72 C49.79871827 76.89962627 50.11792284 81.54347889 50.09765625 86.52416992 C50.09619598 87.24053116 50.09473572 87.9568924 50.0932312 88.69496155 C50.08944968 90.2374307 50.0833594 91.77989562 50.07516479 93.32234764 C50.06232063 95.76457464 50.05586561 98.20674689 50.05102539 100.64900208 C50.03964181 105.82852611 50.02038463 111.0080046 50 116.1875 C49.97638082 122.20219412 49.95600906 128.21686259 49.94406128 134.23159218 C49.93758683 136.6357278 49.92508276 139.03978398 49.91235352 141.44389343 C49.9087211 142.91726615 49.90536935 144.39063959 49.90234375 145.86401367 C49.89710693 147.14861984 49.89187012 148.43322601 49.88647461 149.75675964 C49.97600988 153.4845178 49.97600988 153.4845178 51 157 C51.99 157.33 52.98 157.66 54 158 C53.67 158.66 53.34 159.32 53 160 C52.34 160 51.68 160 51 160 C50.67 160.99 50.34 161.98 50 163 C49.34 162.67 48.68 162.34 48 162 C48 161.34 48 160.68 48 160 C31.5 160 15 160 -2 160 C-0.19483889 167.22064443 1.42088293 173.24516958 4 180 C4 180.99 4 181.98 4 183 C10.42080833 186.32110776 15.93955153 186.25113054 23.0625 186.3125 C24.15755859 186.34150391 25.25261719 186.37050781 26.38085938 186.40039062 C35.20177566 186.46868837 41.5023077 184.62889257 49.07421875 180.203125 C51.77676564 177.11136751 51.69992798 174.80259271 51.8125 170.75 C51.86019531 169.48671875 51.90789062 168.2234375 51.95703125 166.921875 C51.97121094 165.95765625 51.98539062 164.9934375 52 164 C52.99 164 53.98 164 55 164 C55.08119503 166.24940295 55.13927819 168.49964871 55.1875 170.75 C55.23970703 172.62945312 55.23970703 172.62945312 55.29296875 174.546875 C54.98827695 178.1381757 54.57265731 179.533239 52 182 C51.34 182 50.68 182 50 182 C49.67 182.99 49.34 183.98 49 185 C40.56330888 189.90505298 33.04016758 190.36484008 23.5 190.375 C22.28957031 190.39949219 21.07914063 190.42398438 19.83203125 190.44921875 C11.50702288 190.47669403 7.83525777 189.72245607 1.875 183.9375 C-3.04458994 176.23014243 -4.08608784 169.13912161 -5 160 C-47.24 160.33 -89.48 160.66 -133 161 C-132.67 161.33 -132.34 161.66 -132 162 C-131.84784826 164.28812814 -131.77813508 166.58199128 -131.75 168.875 C-131.72421875 170.13054687 -131.6984375 171.38609375 -131.671875 172.6796875 C-132 176 -132 176 -133.3671875 177.84765625 C-143.51350127 185.00833223 -153.52450346 185.16606979 -165.5625 185.0625 C-166.57119141 185.05798828 -167.57988281 185.05347656 -168.61914062 185.04882812 C-171.07949147 185.03716769 -173.53971239 185.02080378 -176 185 C-176.33 184.01 -176.66 183.02 -177 182 C-177.99 181.67 -178.98 181.34 -180 181 C-180.10812003 178.24894578 -180.18734945 175.50214913 -180.25 172.75 C-180.28351563 171.97269531 -180.31703125 171.19539062 -180.3515625 170.39453125 C-180.36445313 169.64042969 -180.37734375 168.88632813 -180.390625 168.109375 C-180.41157227 167.41811523 -180.43251953 166.72685547 -180.45410156 166.01464844 C-180 164 -180 164 -178 162.44177246 C-175.00463069 158.78476731 -175.46951107 155.50938134 -175.54589844 150.91699219 C-175.54502228 149.54086258 -175.54502228 149.54086258 -175.54412842 148.13693237 C-175.54691369 145.10652748 -175.57802692 142.07710792 -175.609375 139.046875 C-175.6168358 136.94509417 -175.62252949 134.84330638 -175.62652588 132.74151611 C-175.64179476 127.2109861 -175.68108772 121.68087661 -175.7253418 116.1505127 C-175.76626725 110.50664967 -175.78453109 104.86271866 -175.8046875 99.21875 C-175.84758048 88.14564862 -175.91584726 77.07285929 -176 66 C-175.01 65.505 -175.01 65.505 -174 65 C-173.34 65.33 -172.68 65.66 -172 66 C-172.30827263 62.93782519 -172.94550095 62.04837139 -175.29296875 59.96484375 C-176.24816406 59.29582031 -177.20335937 58.62679687 -178.1875 57.9375 C-179.12980469 57.26589844 -180.07210937 56.59429687 -181.04296875 55.90234375 C-183.94639894 54.03448312 -186.90003784 52.51184841 -190 51 C-190.33 50.67 -190.66 50.34 -191 50 C-193.33297433 49.95907063 -195.66705225 49.95758277 -198 50 C-201.24539753 55.30748658 -201.52826559 59.83319149 -201.6875 65.875 C-201.72166016 66.75414063 -201.75582031 67.63328125 -201.79101562 68.5390625 C-201.8729314 70.69227705 -201.93815579 72.84611551 -202 75 C-193.814234 74.6623226 -186.64473588 74.03153319 -179 71 C-179 71.99 -179 72.98 -179 74 C-186.90331588 78.91761877 -195.01092551 78.65277803 -204 78 C-206.333501 75.666499 -205.23321804 70.00483626 -205.25 66.875 C-205.270625 65.9365625 -205.29125 64.998125 -205.3125 64.03125 C-205.35020703 57.30054464 -204.35581802 52.84370309 -200.8125 47.0625 C-197.57501513 45.16466404 -194.55116351 45.27812414 -191 46 C-184.57869476 48.72859996 -179.20382389 52.41567895 -174 57 C-172.35581617 58.03655068 -170.69669715 59.05184571 -169 60 C-168.67 58.68 -168.34 57.36 -168 56 C-167.34 56 -166.68 56 -166 56 C-165.8659375 55.41863281 -165.731875 54.83726563 -165.59375 54.23828125 C-163.66485648 46.96686028 -160.36158542 43.15115225 -154.31640625 38.7890625 C-147.5450168 33.5592204 -143.11209263 26.87176371 -140 19 C-139.36248638 17.72497277 -138.71580206 16.45451005 -138.0625 15.1875 C-136.04512377 11.22074899 -134.49621107 7.189391 -133 3 C-133.99 2.67 -134.98 2.34 -136 2 C-135 -0 -135 -0 -132 -1 C-130.30103962 -1.10562928 -128.59832219 -1.15490688 -126.89616394 -1.17167664 C-125.31270927 -1.19069534 -125.31270927 -1.19069534 -123.69726562 -1.21009827 C-122.53928467 -1.21899582 -121.38130371 -1.22789337 -120.18823242 -1.23706055 C-118.3586071 -1.25672882 -118.3586071 -1.25672882 -116.49201965 -1.27679443 C-113.14480657 -1.3114552 -109.79761707 -1.34163551 -106.45034194 -1.36918616 C-104.35823903 -1.38669556 -102.26615305 -1.40557104 -100.17406654 -1.42493629 C-92.87283497 -1.49248669 -85.57157982 -1.55488241 -78.27026367 -1.61254883 C-71.46910283 -1.66640062 -64.66811279 -1.73150734 -57.86710471 -1.80188721 C-52.02501496 -1.86184256 -46.18288906 -1.91388306 -40.34067231 -1.95981437 C-36.85283701 -1.98737096 -33.36510162 -2.01810946 -29.87737083 -2.05682945 C-25.98495643 -2.09972038 -22.09252384 -2.12616235 -18.19995117 -2.15112305 C-17.04804291 -2.16609329 -15.89613464 -2.18106354 -14.70932007 -2.19648743 C-9.41349717 -2.21748798 -4.93870745 -2.18639274 0 0 Z " fill="#FEFEFE" transform="translate(220,19)"/>
<path d="M0 0 C-0.33 0.99 -0.66 1.98 -1 3 C4.79369211 13.48524227 13.33726831 24.20126239 23.41015625 30.6953125 C26.13555698 32.93188214 27.79643947 35.87199663 29.64453125 38.83984375 C31.2443371 41.38939024 33.06722302 43.69553514 35 46 C34.34 47.32 33.68 48.64 33 50 C31.68 50 30.36 50 29 50 C29.22844404 52.7533518 29.48175448 55.50048338 29.75 58.25 C29.811875 59.02730469 29.87375 59.80460937 29.9375 60.60546875 C30.30061593 64.14584904 30.66261791 66.48095063 32.625 69.5 C35.87052715 71.54980662 38.43641094 71.60875596 42.25 71.75 C43.51328125 71.80671875 44.7765625 71.8634375 46.078125 71.921875 C47.04234375 71.94765625 48.0065625 71.9734375 49 72 C49.79871827 76.89962627 50.11792284 81.54347889 50.09765625 86.52416992 C50.09619598 87.24053116 50.09473572 87.9568924 50.0932312 88.69496155 C50.08944968 90.2374307 50.0833594 91.77989562 50.07516479 93.32234764 C50.06232063 95.76457464 50.05586561 98.20674689 50.05102539 100.64900208 C50.03964181 105.82852611 50.02038463 111.0080046 50 116.1875 C49.97638082 122.20219412 49.95600906 128.21686259 49.94406128 134.23159218 C49.93758683 136.6357278 49.92508276 139.03978398 49.91235352 141.44389343 C49.9087211 142.91726615 49.90536935 144.39063959 49.90234375 145.86401367 C49.89710693 147.14861984 49.89187012 148.43322601 49.88647461 149.75675964 C49.97600988 153.4845178 49.97600988 153.4845178 51 157 C51.99 157.33 52.98 157.66 54 158 C53.67 158.66 53.34 159.32 53 160 C52.34 160 51.68 160 51 160 C50.67 160.99 50.34 161.98 50 163 C49.34 162.67 48.68 162.34 48 162 C48 161.34 48 160.68 48 160 C31.5 160 15 160 -2 160 C-0.19483889 167.22064443 1.42088293 173.24516958 4 180 C4 180.99 4 181.98 4 183 C10.42080833 186.32110776 15.93955153 186.25113054 23.0625 186.3125 C24.15755859 186.34150391 25.25261719 186.37050781 26.38085938 186.40039062 C35.20177566 186.46868837 41.5023077 184.62889257 49.07421875 180.203125 C51.77676564 177.11136751 51.69992798 174.80259271 51.8125 170.75 C51.86019531 169.48671875 51.90789062 168.2234375 51.95703125 166.921875 C51.97121094 165.95765625 51.98539062 164.9934375 52 164 C52.99 164 53.98 164 55 164 C55.08119503 166.24940295 55.13927819 168.49964871 55.1875 170.75 C55.23970703 172.62945312 55.23970703 172.62945312 55.29296875 174.546875 C54.98827695 178.1381757 54.57265731 179.533239 52 182 C51.34 182 50.68 182 50 182 C49.67 182.99 49.34 183.98 49 185 C40.56330888 189.90505298 33.04016758 190.36484008 23.5 190.375 C22.28957031 190.39949219 21.07914063 190.42398438 19.83203125 190.44921875 C11.50702288 190.47669403 7.83525777 189.72245607 1.875 183.9375 C-3.04458994 176.23014243 -4.08608784 169.13912161 -5 160 C-47.24 160.33 -89.48 160.66 -133 161 C-132.67 161.33 -132.34 161.66 -132 162 C-131.84784826 164.28812814 -131.77813508 166.58199128 -131.75 168.875 C-131.72421875 170.13054687 -131.6984375 171.38609375 -131.671875 172.6796875 C-132 176 -132 176 -133.3671875 177.84765625 C-143.51350127 185.00833223 -153.52450346 185.16606979 -165.5625 185.0625 C-166.57119141 185.05798828 -167.57988281 185.05347656 -168.61914062 185.04882812 C-171.07949147 185.03716769 -173.53971239 185.02080378 -176 185 C-176.33 184.01 -176.66 183.02 -177 182 C-177.99 181.67 -178.98 181.34 -180 181 C-180.10812003 178.24894578 -180.18734945 175.50214913 -180.25 172.75 C-180.28351563 171.97269531 -180.31703125 171.19539062 -180.3515625 170.39453125 C-180.36445313 169.64042969 -180.37734375 168.88632813 -180.390625 168.109375 C-180.41157227 167.41811523 -180.43251953 166.72685547 -180.45410156 166.01464844 C-180 164 -180 164 -178 162.44177246 C-175.00463069 158.78476731 -175.46951107 155.50938134 -175.54589844 150.91699219 C-175.54502228 149.54086258 -175.54502228 149.54086258 -175.54412842 148.13693237 C-175.54691369 145.10652748 -175.57802692 142.07710792 -175.609375 139.046875 C-175.6168358 136.94509417 -175.62252949 134.84330638 -175.62652588 132.74151611 C-175.64179476 127.2109861 -175.68108772 121.68087661 -175.7253418 116.1505127 C-175.76626725 110.50664967 -175.78453109 104.86271866 -175.8046875 99.21875 C-175.84758048 88.14564862 -175.91584726 77.07285929 -176 66 C-175.01 65.505 -175.01 65.505 -174 65 C-173.34 65.33 -172.68 65.66 -172 66 C-172.30827263 62.93782519 -172.94550095 62.04837139 -175.29296875 59.96484375 C-176.24816406 59.29582031 -177.20335937 58.62679687 -178.1875 57.9375 C-179.12980469 57.26589844 -180.07210937 56.59429687 -181.04296875 55.90234375 C-183.94639894 54.03448312 -186.90003784 52.51184841 -190 51 C-190.33 50.67 -190.66 50.34 -191 50 C-193.33297433 49.95907063 -195.66705225 49.95758277 -198 50 C-201.24539753 55.30748658 -201.52826559 59.83319149 -201.6875 65.875 C-201.72166016 66.75414063 -201.75582031 67.63328125 -201.79101562 68.5390625 C-201.8729314 70.69227705 -201.93815579 72.84611551 -202 75 C-193.814234 74.6623226 -186.64473588 74.03153319 -179 71 C-179 71.99 -179 72.98 -179 74 C-186.90331588 78.91761877 -195.01092551 78.65277803 -204 78 C-206.333501 75.666499 -205.23321804 70.00483626 -205.25 66.875 C-205.270625 65.9365625 -205.29125 64.998125 -205.3125 64.03125 C-205.35020703 57.30054464 -204.35581802 52.84370309 -200.8125 47.0625 C-197.57501513 45.16466404 -194.55116351 45.27812414 -191 46 C-184.57869476 48.72859996 -179.20382389 52.41567895 -174 57 C-172.35581617 58.03655068 -170.69669715 59.05184571 -169 60 C-168.67 58.68 -168.34 57.36 -168 56 C-167.34 56 -166.68 56 -166 56 C-165.8659375 55.41863281 -165.731875 54.83726563 -165.59375 54.23828125 C-163.66485648 46.96686028 -160.36158542 43.15115225 -154.31640625 38.7890625 C-147.5450168 33.5592204 -143.11209263 26.87176371 -140 19 C-139.36248638 17.72497277 -138.71580206 16.45451005 -138.0625 15.1875 C-136.04512377 11.22074899 -134.49621107 7.189391 -133 3 C-133.99 2.67 -134.98 2.34 -136 2 C-135 -0 -135 -0 -132 -1 C-130.30103962 -1.10562928 -128.59832219 -1.15490688 -126.89616394 -1.17167664 C-125.31270927 -1.19069534 -125.31270927 -1.19069534 -123.69726562 -1.21009827 C-122.53928467 -1.21899582 -121.38130371 -1.22789337 -120.18823242 -1.23706055 C-118.3586071 -1.25672882 -118.3586071 -1.25672882 -116.49201965 -1.27679443 C-113.14480657 -1.3114552 -109.79761707 -1.34163551 -106.45034194 -1.36918616 C-104.35823903 -1.38669556 -102.26615305 -1.40557104 -100.17406654 -1.42493629 C-92.87283497 -1.49248669 -85.57157982 -1.55488241 -78.27026367 -1.61254883 C-71.46910283 -1.66640062 -64.66811279 -1.73150734 -57.86710471 -1.80188721 C-52.02501496 -1.86184256 -46.18288906 -1.91388306 -40.34067231 -1.95981437 C-36.85283701 -1.98737096 -33.36510162 -2.01810946 -29.87737083 -2.05682945 C-25.98495643 -2.09972038 -22.09252384 -2.12616235 -18.19995117 -2.15112305 C-17.04804291 -2.16609329 -15.89613464 -2.18106354 -14.70932007 -2.19648743 C-9.41349717 -2.21748798 -4.93870745 -2.18639274 0 0 Z M-129 2 C-134.04597964 14.65707728 -134.04597964 14.65707728 -135 23 C-137.25669869 27.3089314 -140.55481108 30.76430479 -144.3125 33.8125 C-149.29987688 37.86611689 -153.03177561 42.98317745 -157 48 C-157.69480469 48.84046875 -158.38960937 49.6809375 -159.10546875 50.546875 C-163.38658704 55.74715021 -167.12047337 61.11138386 -170.65234375 66.84765625 C-172 69 -172 69 -173 70 C-173.06513025 72.7092759 -173.0650059 75.39152895 -173.02172852 78.09985352 C-173.01193686 78.9623342 -173.00214521 79.82481489 -172.99205685 80.71343136 C-172.95905484 83.51867024 -172.91909586 86.32376207 -172.87890625 89.12890625 C-172.85757497 90.85542247 -172.83669742 92.58194436 -172.81628418 94.30847168 C-172.73719938 100.72655138 -172.64930807 107.14452012 -172.5625 113.5625 C-172.376875 127.896875 -172.19125 142.23125 -172 157 C-117.22 157 -62.44 157 -6 157 C-6 156.34 -6 155.68 -6 155 C-2.36203608 153.78734536 -0.34275457 154.27049051 3.4375 154.875 C12.91605529 156.29612647 22.43274403 156.63090789 32 157 C28.242375 153.12266305 24.34194217 149.91438816 19.98828125 146.74609375 C17.06959249 144.18292307 16.11351772 142.09811022 15.71289062 138.22265625 C15.69419922 137.17980469 15.67550781 136.13695312 15.65625 135.0625 C15.62660156 133.92039063 15.59695312 132.77828125 15.56640625 131.6015625 C15.52213542 129.20052083 15.47786458 126.79947917 15.43359375 124.3984375 C15.40394531 123.25632812 15.37429687 122.11421875 15.34375 120.9375 C15.32505859 119.89464844 15.30636719 118.85179687 15.28710938 117.77734375 C15.00268683 115.025991 14.41195707 113.35044351 13 111 C15.55730994 113.13721666 16.87606882 114.31825307 17.48242188 117.65380859 C17.47791016 118.64203613 17.47339844 119.63026367 17.46875 120.6484375 C17.48292969 121.73640625 17.49710938 122.824375 17.51171875 123.9453125 C17.50393294 126.22395842 17.49612063 128.50260426 17.48828125 130.78125 C17.5912426 138.69991362 18.35790929 142.35790929 24 148 C24.8971875 148.1546875 24.8971875 148.1546875 25.8125 148.3125 C29.54812324 149.48655302 31.92849547 152.60109131 34.265625 155.65234375 C36.85391741 157.66351691 38.96836574 157.29134304 42.1875 157.1875 C43.81751953 157.14689453 43.81751953 157.14689453 45.48046875 157.10546875 C46.31191406 157.07066406 47.14335937 157.03585938 48 157 C47.83923477 156.48379089 47.67846954 155.96758179 47.51283264 155.43572998 C46.84636784 152.27031467 46.83483747 149.26404727 46.79467773 146.02832031 C46.78477814 145.3352327 46.77487854 144.64214508 46.76467896 143.92805481 C46.73317581 141.64477922 46.70835098 139.36148286 46.68359375 137.078125 C46.66301455 135.491999 46.64201782 133.90587836 46.62062073 132.31976318 C46.56549979 128.15069939 46.51604663 123.98158692 46.46777344 119.81243896 C46.41748544 115.55590497 46.36183751 111.29944142 46.30664062 107.04296875 C46.19918113 98.69537211 46.0977092 90.34771643 46 82 C42.37 82 38.74 82 35 82 C34.34 80.68 33.68 79.36 33 78 C33.495 78.33 33.99 78.66 34.5 79 C38.09090894 80.43636358 41.14456127 80.12851462 45 80 C45.33 78.35 45.66 76.7 46 75 C45.18015625 74.93941406 44.3603125 74.87882812 43.515625 74.81640625 C42.43796875 74.73261719 41.3603125 74.64882812 40.25 74.5625 C39.18265625 74.48128906 38.1153125 74.40007812 37.015625 74.31640625 C34 74 34 74 31.734375 73.40234375 C29.90237364 72.78307631 29.90237364 72.78307631 28 74 C27.855625 73.2575 27.71125 72.515 27.5625 71.75 C27.09812508 69.47972261 26.58136431 67.24240521 26 65 C25.34 65 24.68 65 24 65 C22.23002275 60.28006065 21.56991911 55.97010539 21 51 C20.15405273 50.98018066 19.30810547 50.96036133 18.43652344 50.93994141 C15.23806298 50.86091856 12.0399203 50.77420664 8.84179688 50.68261719 C7.46882902 50.64479968 6.09577785 50.60987348 4.72265625 50.578125 C-3.10508909 50.39501985 -10.62361406 49.887909 -18.32421875 48.45898438 C-22.16738092 47.79975583 -25.98379065 47.58800904 -29.875 47.4375 C-37.41699954 47.11407484 -37.41699954 47.11407484 -40.59768677 46.49171448 C-45.18684391 45.82847307 -49.68919061 45.86913714 -54.31982422 45.88647461 C-55.34482529 45.88632858 -56.36982635 45.88618256 -57.42588806 45.8860321 C-60.80217633 45.88672684 -64.17840891 45.89449871 -67.5546875 45.90234375 C-69.90023773 45.90420949 -72.24578835 45.90563266 -74.59133911 45.90663147 C-80.75623658 45.91044438 -86.92111039 45.9202642 -93.08599854 45.93133545 C-99.38024577 45.94157593 -105.67449683 45.94613474 -111.96875 45.95117188 C-124.31251038 45.96188757 -136.65625322 45.97894927 -149 46 C-145.91402239 43.94268159 -145.28969734 43.75020381 -141.80729675 43.75276184 C-140.52675163 43.74647011 -140.52675163 43.74647011 -139.22033691 43.74005127 C-137.81999207 43.74848053 -137.81999207 43.74848053 -136.39135742 43.75708008 C-135.4056929 43.75518173 -134.42002838 43.75328339 -133.40449524 43.75132751 C-130.13807278 43.74761556 -126.87187154 43.75833237 -123.60546875 43.76953125 C-121.33726528 43.77072323 -119.06906131 43.77117617 -116.80085754 43.7709198 C-112.04193033 43.77248554 -107.28307824 43.78078041 -102.52416992 43.79418945 C-96.42769177 43.81115035 -90.33129646 43.81500462 -84.23479748 43.81424427 C-79.54819449 43.81451646 -74.86160956 43.82000599 -70.17501259 43.82724571 C-67.92756601 43.83042581 -65.68011739 43.83239825 -63.43266869 43.83313942 C-60.28735256 43.83531159 -57.14212353 43.84407571 -53.99682617 43.85473633 C-53.06933563 43.85428314 -52.14184509 43.85382996 -51.18624878 43.85336304 C-46.66781226 43.8757152 -42.45189449 44.13374396 -38 45 C-35.48073809 45.17084338 -32.9595641 45.31477791 -30.4375 45.4375 C-25.53597647 45.69562163 -20.83047474 46.14179206 -16 47.0625 C-9.48471195 48.15799091 -3.02750257 48.2221673 3.5625 48.25 C5.15288086 48.26365601 5.15288086 48.26365601 6.77539062 48.27758789 C7.77892578 48.27364014 8.78246094 48.26969238 9.81640625 48.265625 C10.71818604 48.26336914 11.61996582 48.26111328 12.54907227 48.25878906 C15.13135633 47.98613032 16.77570275 47.30509386 19 46 C17.35 45.67 15.7 45.34 14 45 C14 44.67 14 44.34 14 44 C18.82562471 43.66332851 20.936642 44.5619852 25 47 C28.20916171 47.25136033 28.20916171 47.25136033 31 47 C30.67 46.01 30.34 45.02 30 44 C29.34 43.67 28.68 43.34 28 43 C26.99618487 41.33562836 25.99685687 39.66854852 25 38 C20.60679205 32.62768563 15.9062794 27.62223091 10.5078125 23.25390625 C8.90547868 21.92139548 7.45319399 20.49235191 6 19 C1.78189328 21.20075133 0.35519835 22.06356799 -1.375 26.625 C-2.27340654 31.38655466 -2.17798476 36.17463544 -2 41 C-4.69461986 36.95807022 -4.23200889 34.7948504 -4 30 C-3.67 29.67 -3.34 29.34 -3 29 C-2.95936168 27.33382885 -2.957279 25.66611905 -3 24 C-9.91895619 23.75289442 -16.06147771 24.04098514 -22 28 C-24.04296875 28.1953125 -24.04296875 28.1953125 -26.1875 28.125 C-27.445625 28.08375 -28.70375 28.0425 -30 28 C-30 27.67 -30 27.34 -30 27 C-28.9275 26.9175 -27.855 26.835 -26.75 26.75 C-22.7261549 25.94523098 -21.51830747 25.12270126 -19 22 C-19.4752588 20.35303396 -19.95531891 18.70745272 -20.4375 17.0625 C-20.70433594 16.14597656 -20.97117188 15.22945312 -21.24609375 14.28515625 C-21.79026051 12.0597507 -21.79026051 12.0597507 -23 11 C-24.51469448 10.76807135 -26.03754562 10.58784762 -27.5625 10.4375 C-28.38878906 10.35371094 -29.21507812 10.26992188 -30.06640625 10.18359375 C-30.70449219 10.12300781 -31.34257812 10.06242187 -32 10 C-32.33 8.68 -32.66 7.36 -33 6 C-32.01 6.99 -32.01 6.99 -31 8 C-28.57284794 8.67940467 -28.57284794 8.67940467 -25.875 9.125 C-24.96492187 9.29257812 -24.05484375 9.46015625 -23.1171875 9.6328125 C-22.41851562 9.75398438 -21.71984375 9.87515625 -21 10 C-20.80664062 10.61488281 -20.61328125 11.22976562 -20.4140625 11.86328125 C-20.15367187 12.67152344 -19.89328125 13.47976562 -19.625 14.3125 C-19.36976563 15.11300781 -19.11453125 15.91351563 -18.8515625 16.73828125 C-18.01168189 19.22724528 -18.01168189 19.22724528 -16 22 C-13.72886197 21.85899143 -11.45809275 21.71203245 -9.1875 21.5625 C-7.92292969 21.48128906 -6.65835938 21.40007813 -5.35546875 21.31640625 C-2.00818107 21.12815453 -2.00818107 21.12815453 1 20 C1.33 19.34 1.66 18.68 2 18 C2.99 17.34 3.98 16.68 5 16 C3.88037801 14.35050343 2.75413155 12.70550162 1.625 11.0625 C0.99851563 10.14597656 0.37203125 9.22945312 -0.2734375 8.28515625 C-1.79771071 5.91612836 -1.79771071 5.91612836 -4 5 C-4.33 4.01 -4.66 3.02 -5 2 C-45.92 2 -86.84 2 -129 2 Z " fill="#010101" transform="translate(220,19)"/>
<path d="M0 0 C0.96824707 0.00386719 1.93649414 0.00773437 2.93408203 0.01171875 C10.23906392 0.09951022 17.21378216 0.73668604 24.375 2.25 C24.375 3.24 24.375 4.23 24.375 5.25 C23.158125 5.270625 21.94125 5.29125 20.6875 5.3125 C19.66076172 5.32990234 19.66076172 5.32990234 18.61328125 5.34765625 C16.375 5.25 16.375 5.25 14.0625 4.75 C10.69102267 4.1227484 7.48939688 4.15547293 4.0625 4.1875 C2.80824219 4.19652344 1.55398437 4.20554687 0.26171875 4.21484375 C-0.69089844 4.22644531 -1.64351562 4.23804687 -2.625 4.25 C-2.625 4.91 -2.625 5.57 -2.625 6.25 C-1.635 6.58 -0.645 6.91 0.375 7.25 C0.705 7.91 1.035 8.57 1.375 9.25 C6.34806516 8.75269348 10.01299813 7.69697666 14.375 5.25 C14.375 6.57 14.375 7.89 14.375 9.25 C11.9375 10.875 11.9375 10.875 9.375 12.25 C9.045 12.91 8.715 13.57 8.375 14.25 C7.715 14.25 7.055 14.25 6.375 14.25 C6.375 18.54 6.375 22.83 6.375 27.25 C11.9418961 21.5536412 14.61788931 15.67955934 17.375 8.25 C18.035 8.58 18.695 8.91 19.375 9.25 C18.97296387 15.07952386 18.22821325 18.60347814 14.375 23.25 C13.385 23.58 12.395 23.91 11.375 24.25 C10.69367549 25.91072849 10.02757873 27.577767 9.375 29.25 C8.385 29.91 7.395 30.57 6.375 31.25 C6.065625 31.91 5.75625 32.57 5.4375 33.25 C4.09223107 35.78227093 2.97882328 36.13407574 0.375 37.25 C-0.40875 37.806875 -1.1925 38.36375 -2 38.9375 C-5.41867975 40.64683988 -6.96218857 40.20233097 -10.625 39.25 C-11.78 38.981875 -12.935 38.71375 -14.125 38.4375 C-18.29290451 37.02338954 -22.57302714 35.35394572 -24.625 31.25 C-25.31512809 20.39375423 -25.05197146 10.91480004 -17.625 2.25 C-11.77383248 -0.00753707 -6.21884348 -0.05978631 0 0 Z " fill="#000000" transform="translate(218.625,83.75)"/>
<path d="M0 0 C1.22339081 0.01061211 1.22339081 0.01061211 2.47149658 0.0214386 C5.07048181 0.04937581 7.66729372 0.11210844 10.265625 0.17578125 C12.02991675 0.2008652 13.79424235 0.22367821 15.55859375 0.24414062 C19.87843856 0.29919971 24.19666363 0.3854639 28.515625 0.48828125 C30.16782071 5.44486838 30.32370471 10.33328999 29.515625 15.48828125 C27.27257698 19.08330342 23.99753431 20.04347059 20.08203125 21.21875 C13.440247 22.62247461 6.71553544 22.68198332 -0.046875 22.73828125 C-0.92819092 22.74770752 -1.80950684 22.75713379 -2.7175293 22.7668457 C-3.54937744 22.76257568 -4.38122559 22.75830566 -5.23828125 22.75390625 C-5.98408447 22.75165039 -6.7298877 22.74939453 -7.49829102 22.74707031 C-9.484375 22.48828125 -9.484375 22.48828125 -12.484375 20.48828125 C-12.81825922 17.94655006 -12.94850974 15.71576687 -12.921875 13.17578125 C-12.94121094 11.85964844 -12.96054687 10.54351562 -12.98046875 9.1875 C-11.87865234 0.97159337 -7.55298058 -0.24713988 0 0 Z " fill="#FEFEFE" transform="translate(55.484375,178.51171875)"/>
<path d="M0 0 C2.11089518 2.11521194 3.63652052 3.85406594 4.97265625 6.5390625 C4.81809939 10.55221133 3.87613305 13.99959093 1.97265625 17.5390625 C0.98265625 17.8690625 -0.00734375 18.1990625 -1.02734375 18.5390625 C-1.35734375 15.5690625 -1.68734375 12.5990625 -2.02734375 9.5390625 C-2.35734375 9.5390625 -2.68734375 9.5390625 -3.02734375 9.5390625 C-3.02734375 13.1690625 -3.02734375 16.7990625 -3.02734375 20.5390625 C-2.03734375 20.8690625 -1.04734375 21.1990625 -0.02734375 21.5390625 C3.38109367 18.65500007 4.83857009 17.168236 5.78515625 12.7265625 C5.84703125 11.6746875 5.90890625 10.6228125 5.97265625 9.5390625 C6.30265625 9.5390625 6.63265625 9.5390625 6.97265625 9.5390625 C8.02943114 24.75326609 8.02943114 24.75326609 5.625 28.81640625 C2.74636435 30.99910801 0.70151477 31.5390625 -2.90234375 31.5390625 C-3.93359375 31.2090625 -4.96484375 30.8790625 -6.02734375 30.5390625 C-7.16816406 30.20068359 -7.16816406 30.20068359 -8.33203125 29.85546875 C-14.66273636 27.90366989 -14.66273636 27.90366989 -17.02734375 25.5390625 C-17.97566523 16.7174673 -17.54218842 8.36589176 -13.02734375 0.5390625 C-9.11660351 -3.37167774 -4.33769623 -3.12581578 0 0 Z " fill="#FBFBFB" transform="translate(214.02734375,89.4609375)"/>
<path d="M0 0 C1.05123047 -0.02900391 2.10246094 -0.05800781 3.18554688 -0.08789062 C10.2392306 -0.14495216 15.13171396 0.98034791 21.3125 4.3125 C22.52949196 4.87772972 23.74940173 5.43673575 24.97265625 5.98828125 C39.84550044 13.14295601 39.84550044 13.14295601 43.3125 18.3125 C44.29461889 21.86710075 44.55891948 24.82027967 43.3125 28.3125 C40.65598728 31.38937444 38.98083084 32.99808113 34.96777344 33.75439453 C32.20996584 33.91567286 29.51101733 33.9023674 26.75 33.8125 C25.27672241 33.78265015 25.27672241 33.78265015 23.77368164 33.75219727 C8.59948248 33.28054477 -5.55221969 29.1761881 -16.6875 18.3125 C-18.75116375 16.02858443 -20.74626974 13.70117695 -22.6875 11.3125 C-22.0275 10.6525 -21.3675 9.9925 -20.6875 9.3125 C-17.72714895 11.72208806 -14.94363351 14.04288577 -12.3125 16.8125 C-5.42455663 23.37244607 2.22842867 25.86124266 11.3125 28.3125 C12.23506592 28.57945679 12.23506592 28.57945679 13.17626953 28.85180664 C17.5173502 29.7879917 22.01486487 29.49716861 26.4375 29.5 C27.45199219 29.51224609 28.46648437 29.52449219 29.51171875 29.53710938 C30.47980469 29.53904297 31.44789062 29.54097656 32.4453125 29.54296875 C33.77393311 29.54913208 33.77393311 29.54913208 35.12939453 29.55541992 C37.52214365 29.51923665 37.52214365 29.51923665 39.3125 27.3125 C40.04480002 21.92362654 40.04480002 21.92362654 37.77734375 17.30859375 C34.57848486 14.71807569 31.19924156 13.02276673 27.5 11.25 C26.81357422 10.91162109 26.12714844 10.57324219 25.41992188 10.22460938 C24.04538777 9.55229705 22.66484072 8.89213934 21.27856445 8.24438477 C19.51304115 7.40755347 17.78103495 6.50086025 16.0546875 5.5859375 C10.7525623 3.78166525 5.80901322 3.91541368 0.25 4 C-0.81283203 3.99677734 -1.87566406 3.99355469 -2.97070312 3.99023438 C-8.24592814 4.02647889 -12.76714786 4.17210418 -17.6875 6.3125 C-17.6875 3.3125 -17.6875 3.3125 -15.6875 1.3125 C-10.68208802 -0.39142651 -5.22175026 0.04715608 0 0 Z " fill="#000000" transform="translate(80.6875,76.6875)"/>
<path d="M0 0 C6.71878825 1.30041063 12.75996573 3.18855599 19 6 C20.21623047 6.53947266 20.21623047 6.53947266 21.45703125 7.08984375 C26.0020904 9.32845498 29.69628961 11.71213624 32.18359375 16.21875 C33.35396663 20.2058576 33.54180462 24.04718481 33.625 28.1875 C33.65992554 29.36445435 33.65992554 29.36445435 33.69555664 30.56518555 C33.63830011 34.72893405 33.3177142 36.56243632 30.8046875 40.0234375 C27.66913047 42.23317546 26.28063257 42.60210619 22.5 42.4375 C21.5821875 42.41558594 20.664375 42.39367187 19.71875 42.37109375 C13.50330148 41.52272075 10.54588421 38.96297761 6.640625 34.28515625 C4.10949408 30.75965247 2.49547944 27.05592152 1 23 C0.608125 21.948125 0.21625 20.89625 -0.1875 19.8125 C-1.03237484 16.88793325 -1.56976265 14.01166145 -2 11 C2.21590837 14.70915478 3.92284462 17.72076558 5.5625 23.0625 C7.04595021 27.87216383 8.29145577 30.60507474 12 34 C12 34.66 12 35.32 12 36 C15.73678094 37.72519266 18.6439232 38.24853628 22.75 38.1875 C23.71421875 38.18105469 24.6784375 38.17460938 25.671875 38.16796875 C27.96000587 38.25812405 27.96000587 38.25812405 29 37 C30.37726372 25.25501173 30.37726372 25.25501173 26.625 14.625 C22.67311086 11.19818704 17.88415447 9.65676882 13 8 C10.62210081 7.09088053 8.24712858 6.17407185 5.875 5.25 C3.91692386 4.49932878 1.95868218 3.74908848 0 3 C0 2.01 0 1.02 0 0 Z " fill="#010101" transform="translate(272,77)"/>
<path d="M0 0 C0.66 0.33 1.32 0.66 2 1 C2.05451714 3.04136395 2.09302485 5.08315856 2.125 7.125 C2.14820313 8.26195313 2.17140625 9.39890625 2.1953125 10.5703125 C1.99672109 14.05757767 1.2524801 16.7553862 0 20 C0.33 20.33 0.66 20.66 1 21 C1.66 19.68 2.32 18.36 3 17 C3.66 17.33 4.32 17.66 5 18 C4.85775413 20.52108103 4.71129879 23.04180403 4.5625 25.5625 C4.52318359 26.26697266 4.48386719 26.97144531 4.44335938 27.69726562 C4.2398486 31.09433017 3.94293083 34.39619964 3.45703125 37.76953125 C3.09056294 40.35986708 2.96269375 42.53892043 3.125 45.125 C2.99532309 49.14498428 2.37368408 50.83508789 0 54 C-0.66 53.67 -1.32 53.34 -2 53 C-1.34 48.38 -0.68 43.76 0 39 C-0.99 41.31 -1.98 43.62 -3 46 C-3.66 45.67 -4.32 45.34 -5 45 C-4.89015099 40.58281944 -4.75951247 36.1664929 -4.625 31.75 C-4.57859375 29.86861328 -4.57859375 29.86861328 -4.53125 27.94921875 C-4.49257812 26.74394531 -4.45390625 25.53867188 -4.4140625 24.296875 C-4.3826416 23.18666992 -4.3512207 22.07646484 -4.31884766 20.93261719 C-4.00711859 18.06547355 -3.37120911 16.48240181 -2 14 C-1.73689057 11.77848842 -1.55507612 9.54644631 -1.4375 7.3125 C-1.09882353 1.09882353 -1.09882353 1.09882353 0 0 Z " fill="#0F0F0F" transform="translate(255,104)"/>
<path d="M0 0 C-0.59871964 8.68143483 -4.36255266 13.60073545 -10 20 C-10.33 20 -10.66 20 -11 20 C-11 15.05 -11 10.1 -11 5 C-10.01 4.67 -9.02 4.34 -8 4 C-7.34 3.34 -6.68 2.68 -6 2 C-2.44444444 0 -2.44444444 0 0 0 Z " fill="#F7F7F7" transform="translate(235,92)"/>
<path d="M0 0 C2.39591038 -0.02712351 4.79150957 -0.0468982 7.1875 -0.0625 C7.86103516 -0.07087891 8.53457031 -0.07925781 9.22851562 -0.08789062 C12.95434131 -0.10606538 16.3788042 0.10700608 20 1 C16.39273819 4.60726181 11.30074506 6.94887233 6.1875 7.0625 C3.22576507 5.62394304 1.82282326 3.7004789 0 1 C0 0.67 0 0.34 0 0 Z " fill="#F8F8F8" transform="translate(215,87)"/>
<path d="M0 0 C0.66 0.33 1.32 0.66 2 1 C2.05418326 3.08304538 2.09287551 5.16649768 2.125 7.25 C2.14820313 8.41015625 2.17140625 9.5703125 2.1953125 10.765625 C2.0103949 13.82786046 1.60823023 15.44202751 0 18 C-0.99 17.67 -1.98 17.34 -3 17 C-2.505 15.515 -2.505 15.515 -2 14 C-1.69301138 10.61459776 -1.49095405 7.22864938 -1.28125 3.8359375 C-1 1 -1 1 0 0 Z " fill="#030303" transform="translate(255,104)"/>
<path d="M0 0 C0.66 0.33 1.32 0.66 2 1 C2.27429625 6.39449293 2.36055646 9.51925805 -1 14 C-1.66 13.67 -2.32 13.34 -3 13 C-2.69240822 11.02006459 -2.3787932 9.04106401 -2.0625 7.0625 C-1.88847656 5.96035156 -1.71445313 4.85820312 -1.53515625 3.72265625 C-1 1 -1 1 0 0 Z " fill="#000000" transform="translate(256,144)"/>
<path d="M0 0 C0.66 0.33 1.32 0.66 2 1 C2 3.97 2 6.94 2 10 C1.01 10 0.02 10 -1 10 C-1.02689216 8.52093108 -1.04634621 7.04172517 -1.0625 5.5625 C-1.07410156 4.73878906 -1.08570313 3.91507812 -1.09765625 3.06640625 C-1 1 -1 1 0 0 Z " fill="#000000" transform="translate(259,109)"/>
<path d="M0 0 C0.99 0.33 1.98 0.66 3 1 C2.34 3.64 1.68 6.28 1 9 C0.01 8.01 -0.98 7.02 -2 6 C-1.34 4.02 -0.68 2.04 0 0 Z " fill="#F0F0F0" transform="translate(256,118)"/>
</svg>
